<svg id="Capa_1" enable-background="new 0 0 511.992 511.992" height="512" viewBox="0 0 511.992 511.992" width="512" xmlns="http://www.w3.org/2000/svg"><g><g><path d="m506.407 413.255-59.797-18.399c-7.471-2.299-15.097-3.931-22.785-4.904v-188.98l44.892 25.652c1.159.662 2.442.988 3.72.988 1.665 0 3.32-.553 4.679-1.638 2.402-1.917 3.392-5.106 2.497-8.046l-56.113-184.37c-.961-3.158-3.875-5.316-7.175-5.316-3.301 0-6.214 2.158-7.175 5.316l-34.156 112.226c-1.206 3.962 1.029 8.153 4.992 9.359 3.961 1.203 8.152-1.029 9.359-4.992l26.98-88.651 43.44 142.732-36.492-20.852c-4.304-2.459-9.587-2.459-13.891 0l-36.498 20.853 6.609-21.715c1.195-3.928-.789-8.274-4.679-9.586-4.027-1.359-8.352.884-9.581 4.921l-12.197 40.077c-.895 2.94.094 6.129 2.497 8.046s5.731 2.174 8.399.649l44.892-25.652v187.917c-18.413-.285-36.841 3.159-54.046 10.278l-147.428 61.005c-25.633 10.607-54.169 11.401-80.352 2.237l-31.246-10.936-32.86-136.918c-.81-3.372-3.825-5.75-7.293-5.75s-6.483 2.377-7.293 5.75l-26.637 110.988-11.689-4.091c-3.908-1.365-8.188.692-9.557 4.602-1.368 3.91.692 8.188 4.602 9.557l117.019 40.957c13.698 4.794 27.959 7.182 42.208 7.182 16.61 0 33.201-3.248 48.834-9.717l147.428-61.005c25.892-10.714 54.902-12.077 81.685-3.835l60.098 18.492c4.033 1.241 8.312-1.087 9.439-5.185 1.088-3.961-1.404-8.038-5.329-9.246zm-470.507 17.27 19.699-82.081 23.313 97.135z"/></g><path d="m134.657 352.894c3.031-2.823 3.2-7.569.376-10.6s-7.568-3.199-10.6-.376c-21.792 20.296-26.6 52.508-11.69 78.332 8.496 14.715 22.213 25.241 38.626 29.639 5.48 1.468 11.042 2.195 16.568 2.195 11.022 0 21.901-2.891 31.703-8.55 14.715-8.496 25.241-22.213 29.639-38.626 1.977-7.376 2.597-14.898 1.923-22.283 1.044.141 2.099.216 3.158.216 3.989 0 8.03-1.014 11.727-3.148 11.237-6.487 15.102-20.908 8.614-32.146-.09-.156-.187-.304-.279-.457 2.644-1.288 4.392-4.074 4.205-7.193-.248-4.135-3.791-7.287-7.936-7.037l-4.798.288 9.603-63.054 14.839 14.708c8.839 8.761 19.864 15.093 31.884 18.314l16.401 4.395c.65.174 1.303.257 1.946.257 3.311 0 6.342-2.21 7.24-5.561 1.072-4.001-1.302-8.114-5.304-9.186l-16.4-4.395c-9.503-2.546-18.219-7.553-25.207-14.478l-.797-.79c4.125-6.211 9.62-11.418 16.158-15.193 23.213-13.403 53.003-5.42 66.406 17.794 6.492 11.245 8.217 24.346 4.856 36.888s-11.405 23.025-22.65 29.518c-11.246 6.492-24.348 8.217-36.889 4.856-12.542-3.361-23.025-11.405-29.518-22.65-2.522-4.369-4.342-9.057-5.408-13.932-.885-4.047-4.885-6.61-8.929-5.725-4.046.885-6.61 4.882-5.725 8.929 1.396 6.386 3.775 12.519 7.071 18.228 8.496 14.715 22.213 25.241 38.626 29.639 5.48 1.469 11.042 2.195 16.567 2.195 11.022 0 21.902-2.891 31.703-8.55 30.377-17.538 40.822-56.52 23.284-86.896-17.538-30.377-56.52-40.822-86.896-23.284-7.691 4.441-14.3 10.387-19.483 17.454l-37.184-36.854 19.234-15.834c3.198-2.633 3.656-7.359 1.024-10.557-2.633-3.198-7.36-3.656-10.557-1.024l-27.055 22.273-3.703-31.048c1.502.296 3.034.448 4.574.448 3.989 0 8.031-1.015 11.727-3.148 11.237-6.488 15.101-20.909 8.613-32.146s-20.907-15.103-32.146-8.613c-5.444 3.143-9.337 8.217-10.964 14.289-.957 3.57-1.055 7.231-.341 10.75l-56.046 32.358c-11.655 6.729-18.395 19.254-17.588 32.688.611 10.183 5.504 19.303 13.143 25.415l-.234.135c-.029.016-.057.033-.086.05l-13.836 7.988c-3.587 2.071-4.816 6.658-2.745 10.245 1.389 2.406 3.91 3.751 6.502 3.751 1.272 0 2.562-.324 3.743-1.006l9.109-5.259 16.535 15.229v.006l9.378 96.404c.233 2.392 1.598 4.527 3.67 5.743 1.167.685 2.479 1.031 3.795 1.031 1.022 0 2.047-.209 3.009-.63l43.988-19.272c5.451 20.68-3.3 43.307-22.691 54.503-11.246 6.492-24.347 8.215-36.888 4.856-12.542-3.361-23.025-11.405-29.518-22.65-11.393-19.737-7.725-44.351 8.924-59.856zm103.931 13.807c-1.974 1.14-4.273 1.442-6.474.852-2.202-.59-4.042-2.001-5.181-3.975-2.352-4.075-.951-9.303 3.123-11.655 1.341-.774 2.805-1.142 4.252-1.142 2.951 0 5.825 1.531 7.404 4.265 2.351 4.074.95 9.303-3.124 11.655zm.701-112.672 3.024 2.998-9.594 62.995-20.316-50.47zm-23.704-96.073c4.722 0 8.55 3.828 8.55 8.55s-3.828 8.55-8.55 8.55-8.55-3.828-8.55-8.55 3.828-8.55 8.55-8.55zm-15.872 63.385.426 3.575c.59 4.946 3.828 9.17 8.45 11.026 3.853 1.545 8.146 1.231 11.697-.747l7.96 7.89-21.662 12.507c-2.947-5.58-7.51-10.193-13.126-13.166l-15.789-8.357zm-55.764-4.829 51.633-29.81 2.199 18.435-37.046 21.388-23.482-3.771c1.692-2.509 3.952-4.658 6.696-6.242zm-9.863 20.926 25.678 4.123 26.676 14.121c3.45 1.826 6.152 4.826 7.609 8.447l2.345 5.825-48.843-16.641c-7.154-2.437-12.251-8.542-13.465-15.875zm27.131 44.346-13.151-12.112.367-.212 21.464 7.313zm6.328 26.221 22.685 20.894c-6.644-2.5-13.747-3.901-21.047-4.056zm6.753 69.417-3.649-37.512c15.56.909 29.758 9.205 38.165 22.39zm-1.522-84.991 15.987-9.23 15.024 5.119 20.091 49.91c-.294.146-.586.301-.877.46z"/></g></svg>